{
    "asset" : {
        "generator" : "Khronos glTF Blender I/O v1.0.5",
        "version" : "2.0"
    },
    "scene" : 0,
    "scenes" : [
        {
            "name" : "Scene",
            "nodes" : [
                0,
                1
            ]
        }
    ],
    "nodes" : [
        {
            "mesh" : 0,
            "name" : "CanDrink"
        },
        {
            "name" : "Empty",
            "rotation" : [
                0.5,
                0.5,
                -0.5,
                0.4999999701976776
            ],
            "translation" : [
                0,
                0,
                0.05325630307197571
            ]
        }
    ],
    "animations" : [
        {
            "channels" : [
                {
                    "sampler" : 0,
                    "target" : {
                        "node" : 0,
                        "path" : "rotation"
                    }
                }
            ],
            "name" : "CanDrinkAction.001",
            "samplers" : [
                {
                    "input" : 4,
                    "interpolation" : "LINEAR",
                    "output" : 5
                }
            ]
        }
    ],
    "materials" : [
        {
            "doubleSided" : true,
            "name" : "Material",
            "pbrMetallicRoughness" : {
                "baseColorTexture" : {
                    "index" : 0,
                    "texCoord" : 0
                },
                "metallicFactor" : 0.800000011920929,
                "roughnessFactor" : 0.4000000059604645
            }
        }
    ],
    "meshes" : [
        {
            "name" : "Cylinder.001",
            "primitives" : [
                {
                    "attributes" : {
                        "POSITION" : 0,
                        "NORMAL" : 1,
                        "TEXCOORD_0" : 2
                    },
                    "indices" : 3,
                    "material" : 0
                }
            ]
        }
    ],
    "textures" : [
        {
            "source" : 0
        }
    ],
    "images" : [
        {
            "bufferView" : 4,
            "mimeType" : "image/png",
            "name" : "Soda_Mat_Eureka"
        }
    ],
    "accessors" : [
        {
            "bufferView" : 0,
            "componentType" : 5126,
            "count" : 1636,
            "max" : [
                0.9041472673416138,
                4.693174362182617,
                0.9041454792022705
            ],
            "min" : [
                -0.9041471481323242,
                0.0023195743560791016,
                -0.9041488170623779
            ],
            "type" : "VEC3"
        },
        {
            "bufferView" : 1,
            "componentType" : 5126,
            "count" : 1636,
            "type" : "VEC3"
        },
        {
            "bufferView" : 2,
            "componentType" : 5126,
            "count" : 1636,
            "type" : "VEC2"
        },
        {
            "bufferView" : 3,
            "componentType" : 5123,
            "count" : 8070,
            "type" : "SCALAR"
        },
        {
            "bufferView" : 5,
            "componentType" : 5126,
            "count" : 481,
            "max" : [
                20
            ],
            "min" : [
                0
            ],
            "type" : "SCALAR"
        },
        {
            "bufferView" : 6,
            "componentType" : 5126,
            "count" : 481,
            "type" : "VEC4"
        }
    ],
    "bufferViews" : [
        {
            "buffer" : 0,
            "byteLength" : 19632,
            "byteOffset" : 0
        },
        {
            "buffer" : 0,
            "byteLength" : 19632,
            "byteOffset" : 19632
        },
        {
            "buffer" : 0,
            "byteLength" : 13088,
            "byteOffset" : 39264
        },
        {
            "buffer" : 0,
            "byteLength" : 16140,
            "byteOffset" : 52352
        },
        {
            "buffer" : 0,
            "byteLength" : 747424,
            "byteOffset" : 68492
        },
        {
            "buffer" : 0,
            "byteLength" : 1924,
            "byteOffset" : 815916
        },
        {
            "buffer" : 0,
            "byteLength" : 7696,
            "byteOffset" : 817840
        }
    ],
    "buffers" : [
        {
            "byteLength" : 825536,
            "uri" : "data:application/octet-stream;base64,"
        }
    ]
}
